<svg xmlns="http://www.w3.org/2000/svg" viewBox="0 0 900 560" role="img" aria-labelledby="title desc">
  <title id="title">Logistics AI control tower</title><desc id="desc">Logistics AI control tower for ETA prediction, routing, exception management, and warehouse visibility.</desc>
  <defs><linearGradient id="bg" x1="0" x2="1" y1="0" y2="1"><stop stop-color="#122844"/><stop offset="1" stop-color="#07121f"/></linearGradient><linearGradient id="a" x1="0" x2="1"><stop stop-color="#7db7ff"/><stop offset="1" stop-color="#80f0dc"/></linearGradient></defs>
  <rect width="900" height="560" rx="42" fill="url(#bg)"/>
  <path d="M128 370c110-160 220 10 330-128 80-100 154-44 282-112" stroke="#315b83" stroke-width="18" fill="none" stroke-linecap="round"/>
  <path d="M128 370c110-160 220 10 330-128 80-100 154-44 282-112" stroke="url(#a)" stroke-width="8" fill="none" stroke-linecap="round"/>
  <g fill="#102945" stroke="#7db7ff" stroke-width="5"><rect x="94" y="328" width="112" height="64" rx="14"/><rect x="386" y="204" width="112" height="64" rx="14"/><rect x="674" y="94" width="112" height="64" rx="14"/></g>
  <g fill="#ffd98f"><circle cx="128" cy="392" r="16"/><circle cx="198" cy="392" r="16"/><circle cx="420" cy="268" r="16"/><circle cx="490" cy="268" r="16"/><circle cx="708" cy="158" r="16"/><circle cx="778" cy="158" r="16"/></g>
</svg>
